<?xml version="1.0" standalone="no"?><!DOCTYPE svg PUBLIC "-//W3C//DTD SVG 1.1//EN" "http://www.w3.org/Graphics/SVG/1.1/DTD/svg11.dtd"><svg t="1593681273206" class="icon" viewBox="0 0 1024 1024" version="1.1" xmlns="http://www.w3.org/2000/svg" p-id="1750" width="16" height="16" xmlns:xlink="http://www.w3.org/1999/xlink"><defs><style type="text/css"></style></defs><path d="M512 832c-213.888 0-384.512-106.688-512-320 129.408-213.312 300.032-320 512-320 211.968 0 382.592 106.688 512 320-127.488 213.312-298.112 320-512 320z m0-64a256 256 0 1 0 0-512 256 256 0 0 0 0 512z m0-128a128 128 0 1 0 0-256 128 128 0 0 0 0 256z" fill="#95A5A6" p-id="1751"></path></svg>