<?xml version="1.0" standalone="no"?><!DOCTYPE svg PUBLIC "-//W3C//DTD SVG 1.1//EN" "http://www.w3.org/Graphics/SVG/1.1/DTD/svg11.dtd"><svg t="1594287471802" class="icon" viewBox="0 0 1024 1024" version="1.1" xmlns="http://www.w3.org/2000/svg" p-id="14051" width="24" height="24" xmlns:xlink="http://www.w3.org/1999/xlink"><defs><style type="text/css"></style></defs><path d="M933.446 643.862c-18.784-108.945-97.673-180.323-97.673-180.323 11.268-98.92-30.056-116.461-30.056-116.461-8.701-306.05-272.335-300.692-277.87-300.546-5.542-0.146-269.211-5.505-277.872 300.548 0 0-41.325 17.54-30.055 116.461 0 0-78.895 71.378-97.676 180.323 0 0-10.034 184.083 90.16 22.544 0 0 22.544 61.344 63.867 116.455 0 0-73.897 25.062-67.621 90.165 0 0-2.518 72.618 157.784 67.625 0 0 112.702-8.757 146.516-56.35h29.795c33.809 47.595 146.514 56.35 146.514 56.35 160.262 4.993 157.781-67.625 157.781-67.625 6.238-65.103-67.62-90.165-67.62-90.165 41.324-55.11 63.862-116.455 63.862-116.455 100.156 161.537 90.164-22.546 90.164-22.546z" fill="#ECF0F1" p-id="14052"></path></svg>