<?xml version="1.0" standalone="no"?><!DOCTYPE svg PUBLIC "-//W3C//DTD SVG 1.1//EN" "http://www.w3.org/Graphics/SVG/1.1/DTD/svg11.dtd"><svg t="1594287786609" class="icon" viewBox="0 0 1024 1024" version="1.1" xmlns="http://www.w3.org/2000/svg" p-id="16746" width="24" height="24" xmlns:xlink="http://www.w3.org/1999/xlink"><defs><style type="text/css"></style></defs><path d="M320 405.333333v426.666667a21.333333 21.333333 0 0 1-21.333333 21.333333H192a21.333333 21.333333 0 0 1-21.333333-21.333333v-426.666667a21.333333 21.333333 0 0 1 21.333333-21.333333H298.666667a21.333333 21.333333 0 0 1 21.333333 21.333333zM896 572.16a196.693333 196.693333 0 0 0-151.466667-194.56 190.293333 190.293333 0 0 0-168.533333 45.653333V405.333333A21.333333 21.333333 0 0 0 554.666667 384h-106.666667a21.333333 21.333333 0 0 0-21.333333 21.333333v426.666667a21.333333 21.333333 0 0 0 21.333333 21.333333H554.666667a21.333333 21.333333 0 0 0 21.333333-21.333333v-240.64a88.32 88.32 0 0 1 70.826667-88.746667 85.333333 85.333333 0 0 1 99.84 85.333334v244.053333a21.333333 21.333333 0 0 0 21.333333 21.333333h106.666667a21.333333 21.333333 0 0 0 21.333333-21.333333zM234.666667 128a85.333333 85.333333 0 1 0 85.333333 85.333333 85.333333 85.333333 0 0 0-85.333333-85.333333z" p-id="16747" fill="#ECF0F1"></path></svg>