<?xml version="1.0" standalone="no"?><!DOCTYPE svg PUBLIC "-//W3C//DTD SVG 1.1//EN" "http://www.w3.org/Graphics/SVG/1.1/DTD/svg11.dtd"><svg t="1594287218956" class="icon" viewBox="0 0 1024 1024" version="1.1" xmlns="http://www.w3.org/2000/svg" p-id="10945" width="24" height="24" xmlns:xlink="http://www.w3.org/1999/xlink"><defs><style type="text/css"></style></defs><path d="M960.862 621.881c0-128.796-122.159-233.206-272.851-233.206S415.16 493.086 415.16 621.881s122.159 233.206 272.851 233.206c33.442 0 65.473-5.152 95.081-14.562l93.804 41.448s-17.002-62.341-20.434-76.623c63.569-42.697 104.4-109.007 104.4-183.469z m-365.684-41.497c-21.305 0-38.575-17.271-38.575-38.575s17.271-38.575 38.575-38.575c21.305 0 38.575 17.271 38.575 38.575s-17.27 38.575-38.575 38.575z m184.695 0c-21.305 0-38.575-17.271-38.575-38.575s17.271-38.575 38.575-38.575c21.305 0 38.575 17.271 38.575 38.575s-17.27 38.575-38.575 38.575z" p-id="10946" fill="#ECF0F1"></path><path d="M692.201 367.634c4.055 0 8.085 0.087 12.101 0.219-27.758-128.492-159.512-225.826-317.881-225.826-178.544 0-323.283 123.709-323.283 276.31 0 88.224 48.377 166.791 123.697 217.379-4.067 16.922-24.211 90.786-24.211 90.786l111.142-49.109c35.081 11.149 73.033 17.254 112.655 17.254 4.801 0 9.571-0.107 14.321-0.285-7.979-22.804-12.279-46.927-12.279-71.897 0-140.738 135.988-254.831 303.738-254.831z m-195.789-89.876c25.243 0 45.706 20.463 45.706 45.706s-20.463 45.705-45.706 45.705-45.706-20.462-45.706-45.705 20.464-45.706 45.706-45.706zM277.58 369.169c-25.243 0-45.705-20.462-45.705-45.705s20.463-45.706 45.705-45.706c25.243 0 45.706 20.463 45.706 45.706s-20.463 45.705-45.706 45.705z" p-id="10947" fill="#ECF0F1"></path></svg>