<?xml version="1.0" standalone="no"?><!DOCTYPE svg PUBLIC "-//W3C//DTD SVG 1.1//EN" "http://www.w3.org/Graphics/SVG/1.1/DTD/svg11.dtd"><svg t="1594287232669" class="icon" viewBox="0 0 1024 1024" version="1.1" xmlns="http://www.w3.org/2000/svg" p-id="11183" width="24" height="24" xmlns:xlink="http://www.w3.org/1999/xlink"><defs><style type="text/css"></style></defs><path d="M958.678 231.854c-25.963 16.522-89.69 21.242-89.69 21.242 68.447-51.926 70.808-99.131 70.808-99.131-66.087 40.124-115.652 44.845-115.652 44.845-61.367-68.447-136.895-56.646-136.895-56.646-212.423 9.441-181.74 224.224-181.74 224.224-240.746-7.081-382.361-191.181-382.361-191.181-77.888 153.417 51.926 247.827 51.926 247.827-37.764 2.36-75.528-23.603-75.528-23.603-4.72 158.137 139.255 184.1 139.255 184.1-14.162 14.162-73.168 7.081-73.168 7.081C179.794 692.103 328.49 720.426 328.49 720.426c-127.454 94.41-263.168 74.348-263.168 74.348s261.988 191.181 552.299 9.441 257.268-483.852 257.268-483.852c64.907-46.024 83.789-88.509 83.789-88.509z" p-id="11184" fill="#ECF0F1"></path></svg>