<?xml version="1.0" standalone="no"?><!DOCTYPE svg PUBLIC "-//W3C//DTD SVG 1.1//EN" "http://www.w3.org/Graphics/SVG/1.1/DTD/svg11.dtd"><svg t="1594287346537" class="icon" viewBox="0 0 1024 1024" version="1.1" xmlns="http://www.w3.org/2000/svg" p-id="12291" width="24" height="24" xmlns:xlink="http://www.w3.org/1999/xlink"><defs><style type="text/css"></style></defs><path d="M704 256h-128a42.666667 42.666667 0 0 0-42.666667 42.666667v128h170.666667a14.933333 14.933333 0 0 1 14.506667 19.626666l-31.573334 93.866667a21.333333 21.333333 0 0 1-20.053333 14.506667H533.333333v320a21.333333 21.333333 0 0 1-21.333333 21.333333H405.333333a21.333333 21.333333 0 0 1-21.333333-21.333333V554.666667H320a21.333333 21.333333 0 0 1-21.333333-21.333334v-85.333333a21.333333 21.333333 0 0 1 21.333333-21.333333H384V298.666667a170.666667 170.666667 0 0 1 170.666667-170.666667h149.333333a21.333333 21.333333 0 0 1 21.333333 21.333333v85.333334a21.333333 21.333333 0 0 1-21.333333 21.333333z" p-id="12292" fill="#ECF0F1"></path></svg>