<?xml version="1.0" standalone="no"?><!DOCTYPE svg PUBLIC "-//W3C//DTD SVG 1.1//EN" "http://www.w3.org/Graphics/SVG/1.1/DTD/svg11.dtd"><svg t="1594287197659" class="icon" viewBox="0 0 1024 1024" version="1.1" xmlns="http://www.w3.org/2000/svg" p-id="10599" width="24" height="24" xmlns:xlink="http://www.w3.org/1999/xlink"><defs><style type="text/css"></style></defs><path d="M905.758 232.457c-52.281-62.134-133.775-91.074-229.483-81.511-18.716 1.873-32.372 18.562-30.501 37.28 1.874 18.718 18.574 32.372 37.28 30.501 72.63-7.267 133.222 13.186 170.582 57.587 36.059 42.856 46.762 103.29 29.36 165.807-5.044 18.12 5.557 36.9 23.679 41.944a34.063 34.063 0 0 0 9.152 1.257c14.91-0.002 28.598-9.869 32.792-24.935 23.526-84.52 7.904-167.598-42.861-227.93z" p-id="10600" fill="#ECF0F1"></path><path d="M796.732 448.389a34.023 34.023 0 0 0 9.152 1.257c14.91-0.001 28.598-9.869 32.792-24.935 11.607-41.699 3.651-82.98-21.828-113.261-26.173-31.105-66.288-45.662-112.97-40.999-18.716 1.873-32.372 18.563-30.501 37.28 1.873 18.718 18.564 32.389 37.28 30.501 23.618-2.359 42.818 3.702 54.069 17.075 10.773 12.805 13.808 31.443 8.327 51.139-5.043 18.12 5.557 36.899 23.679 41.943z" p-id="10601" fill="#ECF0F1"></path><path d="M723.563 495.152s-15.894 2.271-0.757-26.49 6.055-66.604 6.055-66.604-15.137-66.604-127.154-40.871l-80.228 22.706s-12.11 4.541-16.651 4.541-13.624 4.541 0-37.843c13.624-42.385-9.082-74.173-9.082-74.173s-30.275-46.926-106.718-20.435c0 0-136.236 40.871-234.629 171.052S48.437 611.71 69.63 697.993c21.192 86.283 164.997 169.538 292.151 174.079s208.895 10.596 348.159-66.604 134.722-180.134 134.722-180.134 6.054-107.476-121.099-130.182zM433.23 827.067c-147.434 12.627-273.802-57.102-282.25-155.744-8.448-98.642 104.223-188.843 251.657-201.47 147.435-12.627 273.803 57.102 282.25 155.744 8.448 98.642-104.223 188.843-251.657 201.47z" p-id="10602" fill="#ECF0F1"></path><path d="M372.797 546.383c-78.903 18.515-130.245 87.311-114.676 153.66 15.569 66.35 92.153 105.128 171.056 86.613 78.903-18.514 130.245-87.31 114.676-153.66-15.569-66.349-92.154-105.128-171.056-86.613z m3.145 180.527c-25.124 11.662-53.593 3.662-63.586-17.868-9.994-21.53 2.272-48.438 27.396-60.1 25.124-11.662 53.593-3.662 63.586 17.869 9.994 21.529-2.272 48.437-27.396 60.099z m60.578-71.433c-9.256 4.297-19.744 1.349-23.426-6.583-3.682-7.932 0.837-17.845 10.093-22.141 9.256-4.296 19.744-1.349 23.426 6.583 3.682 7.931-0.837 17.844-10.093 22.141z" p-id="10603" fill="#ECF0F1"></path></svg>